<svg width="31" height="35" viewBox="0 0 31 35" fill="none" xmlns="http://www.w3.org/2000/svg">
<path d="M18.6697 25.8502H1.83777C1.29094 25.8502 0.847656 25.3344 0.847656 24.6981V3.38371C0.847656 2.74741 1.29094 2.23158 1.83777 2.23158H2.82788" stroke="#301446" stroke-width="0.990111" stroke-linecap="round" stroke-linejoin="round"/>
<path d="M26.5896 13.8969V3.38371C26.5896 2.74741 26.1463 2.23158 25.5995 2.23158H24.6094" stroke="#301446" stroke-width="0.990111" stroke-linecap="round" stroke-linejoin="round"/>
<path fill-rule="evenodd" clip-rule="evenodd" d="M3.81824 0.503372H12.2342C13.0544 0.503372 13.7193 1.27711 13.7193 2.23157V23.546H2.82812V1.6555C2.82812 1.0192 3.27141 0.503372 3.81824 0.503372Z" stroke="#301446" stroke-width="0.990111" stroke-linecap="round" stroke-linejoin="round"/>
<path d="M2.82812 21.2417H12.187C13.0542 21.2669 13.74 22.1048 13.7193 23.1139" stroke="#301446" stroke-width="0.990111" stroke-linecap="round" stroke-linejoin="round"/>
<path d="M18.6693 23.546H13.7188V2.23157C13.7188 1.27711 14.3837 0.503372 15.2039 0.503372H23.6199C24.1667 0.503372 24.61 1.0192 24.61 1.6555V13.7529" stroke="#301446" stroke-width="0.990111" stroke-linecap="round" stroke-linejoin="round"/>
<path d="M18.6697 21.2417H15.2538C14.3865 21.2675 13.7003 22.1046 13.7191 23.1139" stroke="#301446" stroke-width="0.990111" stroke-linecap="round" stroke-linejoin="round"/>
<path fill-rule="evenodd" clip-rule="evenodd" d="M8.76904 10.2965L6.78882 7.41615L4.80859 10.2965V0.503372H8.76904V10.2965Z" stroke="#301446" stroke-width="0.990111" stroke-linecap="round" stroke-linejoin="round"/>
<path d="M25.5987 13.7528H22.6284C20.4411 13.7528 18.668 15.8161 18.668 18.3614V29.3066C18.668 31.8518 20.4411 33.9151 22.6284 33.9151H25.5987C27.786 33.9151 29.5592 31.8518 29.5592 29.3066V18.3614C29.5592 15.8161 27.786 13.7528 25.5987 13.7528Z" stroke="#301446" stroke-width="0.990111" stroke-linecap="round" stroke-linejoin="round"/>
<path d="M18.668 22.3938H29.5592" stroke="#301446" stroke-width="0.990111" stroke-linecap="round" stroke-linejoin="round"/>
<path d="M24.1133 13.7528V22.3938" stroke="#301446" stroke-width="0.990111" stroke-linecap="round" stroke-linejoin="round"/>
</svg>
