<svg width="12" height="8" viewBox="0 0 12 8" fill="none" xmlns="http://www.w3.org/2000/svg">
<path d="M11.6039 3.736C11.5079 3.616 9.07187 0.783997 5.99988 0.783997C2.92788 0.783997 0.503875 3.616 0.395875 3.736C0.263875 3.892 0.263875 4.12 0.395875 4.264C0.491875 4.384 2.91587 7.216 5.99988 7.216C9.08387 7.216 11.4959 4.384 11.6039 4.264C11.7359 4.108 11.7359 3.892 11.6039 3.736ZM3.51587 5.704C2.47187 5.14 1.66787 4.396 1.27187 4C1.65587 3.604 2.47187 2.86 3.50388 2.296C3.16788 2.776 2.97587 3.364 2.97587 4C2.98787 4.636 3.17987 5.212 3.51587 5.704ZM5.99988 6.184C4.78788 6.184 3.81587 5.2 3.81587 4C3.81587 2.788 4.79988 1.816 5.99988 1.816C7.19987 1.816 8.18387 2.788 8.18387 4C8.18387 5.212 7.21187 6.184 5.99988 6.184ZM8.48387 5.704C8.81987 5.224 9.01188 4.636 9.01188 4C9.01188 3.364 8.81987 2.788 8.48387 2.296C9.52787 2.848 10.3319 3.604 10.7159 4C10.3319 4.396 9.52787 5.14 8.48387 5.704Z" fill="black"/>
<path d="M6.82881 3.92801C6.40881 3.92801 6.07281 3.59201 6.07281 3.17201C6.07281 2.98001 6.14481 2.80001 6.27681 2.66801C6.19281 2.64401 6.09681 2.64401 6.00081 2.64401C5.24481 2.64401 4.63281 3.25601 4.63281 4.01201C4.63281 4.76801 5.24481 5.36801 6.00081 5.36801C6.75681 5.36801 7.36881 4.75601 7.36881 4.00001C7.36881 3.90401 7.35681 3.80801 7.34481 3.72401C7.20081 3.84401 7.03281 3.92801 6.82881 3.92801Z" fill="black"/>
</svg>
