<svg width="29" height="38" viewBox="0 0 29 38" fill="none" xmlns="http://www.w3.org/2000/svg">
<path d="M14.9882 0.109985C12.869 0.109981 11.1559 0.61626 9.92467 1.43448C8.69344 2.25271 7.89924 3.44108 7.89924 4.77611C7.89924 6.37062 8.2867 7.75298 8.61658 9.05339C8.27067 9.11891 8.12047 9.35675 7.97306 9.58805C7.73314 10.4172 7.86698 11.2897 8.17349 12.0548C8.39735 12.6135 8.72186 13.1279 9.12292 13.5494L9.2495 17.2191C9.24916 17.6079 9.5551 18.1836 9.8086 18.5071C10.4693 19.3186 11.2075 19.9727 11.95 20.585L11.9497 21.4964C11.7135 21.347 11.5293 21.5068 11.3067 21.5814C8.80867 22.9988 6.35444 24.5216 3.84852 25.9195C2.83574 26.5513 2.00114 27.7164 1.7809 28.8115C1.47428 31.5205 1.14309 34.241 0.820941 36.9529C0.773483 37.3871 1.10559 37.8243 1.48552 37.8278H27.8159C28.1954 37.8317 28.5325 37.3996 28.491 36.965C28.1448 34.224 28.0055 31.409 27.6155 28.6899C27.2308 27.3605 26.4278 26.3954 25.4635 25.9559C22.9699 24.508 20.4834 23.0413 17.9948 21.5814C17.9005 21.526 17.7947 21.4966 17.6889 21.4964V20.585C18.4637 19.9282 19.2145 19.2889 19.8303 18.5071C20.0953 18.1679 20.3578 17.8753 20.3789 17.2798H20.3893V17.2191L20.6319 13.7681C21.1365 13.3109 21.5388 12.7139 21.8029 12.0548C22.1094 11.2897 22.2433 10.4172 22.0033 9.58803C21.7528 9.14591 21.5338 9.05003 21.1594 9.0898C21.5893 7.96354 22.0772 6.73748 22.0772 5.16491C22.0772 3.69594 21.3131 2.37434 20.0729 1.49519C18.3196 0.545847 17.0128 0.109946 14.9881 0.109985H14.9882ZM14.9882 1.66536C16.9198 1.66536 18.4015 2.14351 19.3555 2.81974C20.3095 3.49597 20.7269 4.30086 20.7269 5.16495C20.7269 5.70566 20.6394 6.21213 20.5053 6.70818C18.7558 5.74822 16.8601 5.35938 14.9777 5.40798C13.0785 5.45701 11.191 5.94698 9.47106 6.72033C9.3377 6.07519 9.24953 5.43125 9.24953 4.77611C9.24953 4.16692 9.63682 3.42322 10.5998 2.78329C11.5627 2.14335 13.0566 1.66536 14.9882 1.66536ZM14.9986 6.97551C16.6128 6.9326 18.2039 7.2491 19.6719 7.99622C19.3757 10.9976 19.2632 13.9107 19.0389 17.1097C19.0261 17.082 18.977 17.2713 18.8279 17.4621C18.0242 18.4133 17.0846 19.1943 16.1274 19.941C15.2564 19.9558 14.3909 19.9449 13.5113 19.941C12.5 19.1188 11.6451 18.4508 10.8107 17.4621C10.6616 17.2713 10.6125 17.082 10.5997 17.1097L10.2832 8.06913C11.7839 7.43539 13.39 7.01826 14.9986 6.97551ZM13.6378 9.44223L11.2749 9.83108V10.6088L13.9754 10.2199L13.6378 9.44223ZM16.3384 9.44223L16.0008 10.2199L18.7014 10.6088V9.83108L16.3384 9.44223ZM13.3003 21.4964C14.3004 21.4964 15.2969 21.5201 16.3384 21.4964V23.4406C15.6026 24.3647 14.9881 25.3848 14.6512 25.9924C14.3131 25.3848 13.8338 24.2549 13.3004 23.4406C13.3006 22.7926 13.3004 22.1441 13.3004 21.4964H13.3003ZM10.5153 23.7808C10.421 24.7253 10.3727 25.7161 10.5786 26.5878C10.7309 27.1671 11.1228 27.7049 11.6124 27.7179C11.9922 27.7179 12.0805 27.5626 12.1926 27.4627C12.5721 27.0946 12.9169 26.6388 13.2686 26.2718L14.0493 28.0703C14.1617 28.3239 14.4033 28.4942 14.6505 28.4942C14.8978 28.4942 15.1394 28.3239 15.2518 28.0703L16.0325 26.2718C16.4285 26.6636 16.7496 27.1023 17.1085 27.4627C17.2205 27.5626 17.3089 27.7179 17.6887 27.7179C18.298 27.6216 18.5401 27.15 18.7225 26.5878C18.9219 25.6223 18.8833 24.7046 18.7858 23.793C20.8406 24.961 22.8682 26.2314 24.9253 27.3776C25.516 27.6282 26.0234 28.1982 26.3072 29.1396L26.6026 31.9951H22.7522C22.3766 31.9912 22.0419 32.415 22.0771 32.8457L22.3619 36.2724H6.93919L7.224 32.8457C7.25921 32.415 6.9245 31.9933 6.54889 31.9951H2.76178L3.09936 29.1396C3.34758 28.3264 3.83164 27.6171 4.40742 27.3412C6.4424 26.1667 8.48126 24.9687 10.5153 23.7808V23.7808ZM2.58245 33.5505H5.79989L5.57837 36.2724H2.25544L2.58245 33.5505ZM23.5012 33.5505H26.7608L27.0456 36.2724H23.7227L23.5012 33.5505Z" fill="#301446"/>
</svg>
