<svg width="44" height="32" viewBox="0 0 44 32" fill="none" xmlns="http://www.w3.org/2000/svg">
<path d="M28.1193 0.519531L43.5998 16L28.1193 31.4805L25.4102 28.7714L38.1815 16L25.4102 3.22865L28.1193 0.519531Z" fill="url(#paint0_linear_82_214)"/>
<path d="M19.0057 0.907364L34.0993 16L19.0057 31.0931L17.0703 29.1582L30.229 16L17.0703 2.84176L19.0057 0.907364Z" fill="url(#paint1_linear_82_214)"/>
<path d="M9.89502 1.29332L24.6013 16L9.89502 30.7063L8.73438 29.5452L22.2795 16L8.73438 2.45492L9.89502 1.29332Z" fill="url(#paint2_linear_82_214)"/>
<path d="M0.785798 1.68062L15.1052 16L0.785798 30.3193L0.398438 29.9325L14.3304 16L0.398438 2.06798L0.785798 1.68062Z" fill="url(#paint3_linear_82_214)"/>
<defs>
<linearGradient id="paint0_linear_82_214" x1="34.505" y1="0.519531" x2="34.505" y2="31.4805" gradientUnits="userSpaceOnUse">
<stop stop-color="#301446"/>
<stop offset="0.260417" stop-color="#301446"/>
<stop offset="1" stop-color="#7B7FDA"/>
</linearGradient>
<linearGradient id="paint1_linear_82_214" x1="25.5848" y1="0.907364" x2="25.5848" y2="31.0931" gradientUnits="userSpaceOnUse">
<stop stop-color="#301446"/>
<stop offset="0.260417" stop-color="#301446"/>
<stop offset="1" stop-color="#7B7FDA"/>
</linearGradient>
<linearGradient id="paint2_linear_82_214" x1="16.6678" y1="1.29332" x2="16.6678" y2="30.7063" gradientUnits="userSpaceOnUse">
<stop stop-color="#301446"/>
<stop offset="0.260417" stop-color="#301446"/>
<stop offset="1" stop-color="#7B7FDA"/>
</linearGradient>
<linearGradient id="paint3_linear_82_214" x1="7.7518" y1="1.68062" x2="7.7518" y2="30.3193" gradientUnits="userSpaceOnUse">
<stop stop-color="#301446"/>
<stop offset="0.260417" stop-color="#301446"/>
<stop offset="1" stop-color="#7B7FDA"/>
</linearGradient>
</defs>
</svg>
