<svg width="172" height="34" viewBox="0 0 172 34" fill="none" xmlns="http://www.w3.org/2000/svg">
<g clip-path="url(#clip0_414_432)">
<path d="M0.404703 10.1965C0.505531 10.1293 0.539141 9.99482 0.572751 9.86039C0.774408 9.42346 1.1105 9.08736 1.54742 8.91931C1.71547 8.8521 1.88352 8.81848 2.08519 8.81848C2.21962 8.81848 2.32045 8.81848 2.45488 8.81848C12.1008 8.81848 21.7468 8.81848 31.3927 8.81848C31.5944 8.81848 31.796 8.81848 31.9641 8.8521C32.7708 8.98653 33.3421 9.65873 33.4429 10.499C33.4429 10.5662 33.4429 10.6334 33.4429 10.7006C33.4429 11.6753 33.4429 12.6164 33.4429 13.591C33.4429 13.9608 33.3757 14.3305 33.1405 14.6666C32.8043 15.1707 32.3338 15.4396 31.6952 15.4732C31.5944 15.4732 31.46 15.4732 31.3592 15.4732C21.7468 15.4732 12.1344 15.4732 2.4885 15.4732C2.38767 15.4732 2.25323 15.4732 2.1524 15.4732C1.41299 15.4396 0.908847 15.1035 0.572751 14.4313C0.505531 14.2969 0.505531 14.1624 0.371094 14.0616C0.404702 12.7508 0.404703 11.4736 0.404703 10.1965Z" fill="#9E9E9E"/>
<path d="M0.404297 18.8006C0.505125 18.7334 0.538734 18.599 0.572344 18.4982C0.706783 18.1956 0.87483 17.9604 1.14371 17.7588C1.44619 17.5234 1.78228 17.4226 2.152 17.389C2.25283 17.389 2.38726 17.389 2.48809 17.389C11.5627 17.389 20.6036 17.389 29.6782 17.389C29.8463 17.389 30.0479 17.389 30.216 17.4226C31.0898 17.557 31.6613 18.2293 31.7284 19.1366C31.7284 19.2039 31.7284 19.2375 31.7284 19.3047C31.7284 20.2795 31.7284 21.2205 31.7284 22.1952C31.7284 22.6321 31.594 23.069 31.2915 23.4051C30.9554 23.8084 30.5521 24.01 30.0479 24.0437C29.9135 24.0437 29.779 24.0437 29.6446 24.0437C20.57 24.0437 11.5291 24.0437 2.45448 24.0437C2.35365 24.0437 2.25283 24.0437 2.152 24.0437C1.41258 24.01 0.87483 23.6403 0.572344 22.9681C0.505125 22.8673 0.505125 22.733 0.404297 22.6321C0.404297 21.3549 0.404297 20.0777 0.404297 18.8006Z" fill="#9E9E9E"/>
<path d="M30.4172 0.248046C30.4845 0.281655 30.5516 0.315264 30.6189 0.348873C31.3247 0.684969 31.6945 1.22272 31.728 1.99574C31.728 2.23101 31.728 2.46628 31.728 2.70154C31.728 3.40734 31.728 4.14675 31.728 4.85256C31.728 5.02061 31.728 5.22226 31.6608 5.39031C31.4927 6.23055 30.787 6.80191 29.9467 6.80191C29.8459 6.80191 29.7114 6.80191 29.6106 6.80191C20.5697 6.80191 11.5287 6.80191 2.52129 6.80191C2.42046 6.80191 2.31964 6.80191 2.21881 6.80191C1.44579 6.7683 0.908033 6.4322 0.605547 5.7264C0.538328 5.62557 0.538328 5.49114 0.4375 5.39031C0.4375 4.11315 0.4375 2.83599 0.4375 1.55882C0.538328 1.4916 0.571938 1.35716 0.605547 1.22272C0.807204 0.7858 1.10969 0.483312 1.513 0.281655C1.61383 0.248046 1.71466 0.180826 1.78188 0.147217C11.327 0.248046 20.8721 0.248046 30.4172 0.248046Z" fill="#9E9E9E"/>
<path d="M171.074 23.5394C170.939 23.8755 170.67 24.0099 170.333 24.0436C170.267 24.0436 170.166 24.0436 170.098 24.0436C169.056 24.0436 167.981 24.0436 166.939 24.0436C166.873 24.0436 166.771 24.0436 166.704 24.0436C166.335 24.0099 166.031 23.8755 165.83 23.5731C165.762 23.4723 165.696 23.3715 165.628 23.3042C164.822 22.0942 164.015 20.8843 163.208 19.6743C162.906 19.2374 162.603 18.7668 162.334 18.33C162.3 18.2627 162.234 18.1955 162.167 18.0947C162.133 18.0274 162.065 17.9938 161.999 17.9938C161.83 17.9603 161.629 17.9603 161.461 17.9938C161.36 17.9938 161.326 18.0611 161.292 18.1619C161.292 18.2627 161.292 18.3971 161.292 18.4979C161.292 19.9768 161.292 21.4221 161.292 22.9008C161.292 23.0353 161.292 23.1697 161.292 23.2705C161.226 23.741 160.957 24.0436 160.453 24.0436C160.049 24.0436 159.613 24.0436 159.209 24.0436C158.603 24.0436 157.999 24.0436 157.394 24.0436C157.193 24.0436 156.99 24.0099 156.822 23.8755C156.621 23.7075 156.52 23.5058 156.486 23.2705C156.486 23.1697 156.486 23.0353 156.486 22.9345C156.486 16.4814 156.486 9.99478 156.486 3.54173C156.486 3.44091 156.486 3.30646 156.486 3.20564C156.52 2.76871 156.856 2.46623 157.293 2.43262C157.36 2.43262 157.461 2.43262 157.529 2.43262C158.436 2.43262 159.344 2.43262 160.251 2.43262C160.318 2.43262 160.419 2.43262 160.487 2.43262C160.923 2.46623 161.192 2.7351 161.26 3.17203C161.292 3.30646 161.292 3.44091 161.292 3.57534C161.292 5.49109 161.292 7.40683 161.292 9.32258C161.292 10.7342 161.292 12.1458 161.292 13.5574C161.292 13.6582 161.292 13.7927 161.292 13.8935C161.292 13.9943 161.36 14.0615 161.461 14.0615C161.495 14.0615 161.561 14.0615 161.595 14.0615C161.999 14.0615 161.999 14.0615 162.234 13.7591C163.073 12.5827 163.915 11.4064 164.754 10.2636C164.957 9.99478 165.158 9.7259 165.359 9.42342C165.595 9.08732 165.897 8.95287 166.301 8.91927C166.369 8.91927 166.469 8.91927 166.536 8.91927C167.544 8.91927 168.519 8.91927 169.528 8.91927C169.662 8.91927 169.829 8.91927 169.964 8.95287C170.301 9.0537 170.468 9.28897 170.502 9.62507C170.502 9.86033 170.435 10.0956 170.301 10.2973C170.166 10.4989 170.032 10.667 169.897 10.835C168.955 12.0786 168.015 13.2885 167.04 14.5321C166.839 14.8009 166.604 15.1034 166.401 15.3723C166.369 15.4396 166.3 15.5068 166.266 15.5739C166.2 15.6412 166.234 15.7084 166.266 15.8093C166.334 15.9101 166.368 15.9773 166.435 16.0782C167.343 17.4225 168.283 18.7333 169.191 20.0776C169.763 20.8843 170.333 21.7245 170.871 22.5312C170.972 22.6656 171.04 22.8 171.106 22.9345C171.074 23.0689 171.074 23.3042 171.074 23.5394Z" fill="#9E9E9E"/>
<path d="M0.404297 27.3711C0.505125 27.3039 0.538734 27.1694 0.572344 27.0686C0.841221 26.4637 1.27815 26.1275 1.91673 25.9932C2.08478 25.9595 2.21921 25.9595 2.38726 25.9595C3.46277 25.9595 4.57188 25.9595 5.64739 25.9595C9.61331 25.9595 13.5793 25.9595 17.5788 25.9595C17.7804 25.9595 18.0157 25.9595 18.2174 26.0267C18.9904 26.2284 19.5617 26.9005 19.5954 27.7072C19.5954 28.7491 19.5954 29.8245 19.5954 30.8666C19.5954 31.5723 19.2257 32.1101 18.5871 32.4125C18.4863 32.4798 18.3854 32.5133 18.2846 32.5469C12.7726 32.5469 7.26065 32.5469 1.71507 32.5469C1.68147 32.5133 1.61424 32.4798 1.58063 32.4798C1.07649 32.2444 0.740391 31.9084 0.538734 31.4042C0.505125 31.3371 0.471515 31.2698 0.404297 31.2026C0.404297 29.9253 0.404297 28.6483 0.404297 27.3711Z" fill="#9E9E9E"/>
<path d="M44.0293 19.708C44.0293 16.4815 44.0293 13.255 44.0293 10.0285C44.0293 9.89402 44.0293 9.75959 44.0293 9.65876C43.9956 9.28906 44.399 8.78491 44.9031 8.81853C45.5753 8.81853 46.2811 8.81853 46.9533 8.81853C47.2558 8.81853 47.5247 8.81853 47.8271 8.81853C48.3985 8.81853 48.7011 9.08739 48.8019 9.65876C48.8019 9.72597 48.8019 9.79321 48.8354 9.86042C48.8354 9.89402 48.9027 9.92764 48.9363 9.89404C49.0035 9.86042 49.0371 9.79321 49.1043 9.75959C49.9446 9.05379 50.8856 8.61686 51.9611 8.48243C53.2047 8.31438 54.4482 8.41522 55.6582 8.88575C56.532 9.22184 57.3387 9.69237 58.0109 10.331C59.3552 11.5745 60.1283 13.1541 60.4308 14.9691C60.5316 15.6076 60.5651 16.2126 60.5316 16.8513C60.4643 18.0275 60.2291 19.2039 59.6913 20.2793C58.9519 21.7917 57.8765 22.9346 56.3976 23.7076C55.4901 24.1781 54.5155 24.4133 53.5072 24.4806C52.3645 24.5478 51.2889 24.3797 50.247 23.9765C49.8773 23.8419 49.5413 23.6403 49.2051 23.3714C49.1716 23.3379 49.1379 23.3043 49.1043 23.2706C49.0035 23.2035 48.9363 23.237 48.9027 23.3379C48.9027 23.4387 48.9027 23.573 48.9027 23.674C48.9027 25.5897 48.9027 27.5054 48.9027 29.4212C48.9027 29.5556 48.9027 29.7237 48.869 29.8582C48.8354 30.3287 48.4322 30.6647 47.9952 30.6312C47.1214 30.6312 46.2474 30.6312 45.3736 30.6312C45.2056 30.6312 45.0375 30.6312 44.8696 30.6312C44.4326 30.5975 44.1301 30.3287 44.0964 29.8917C44.0964 29.7574 44.0964 29.6228 44.0964 29.4885C44.0293 26.2283 44.0293 22.9681 44.0293 19.708ZM48.8019 16.4143C48.8019 16.6832 48.8354 16.9184 48.869 17.1537C49.1716 18.4645 49.911 19.3383 51.1545 19.7753C51.3897 19.8761 51.6586 19.9096 51.9275 19.9433C52.5326 20.0104 53.1039 19.9096 53.6416 19.6744C54.6163 19.2039 55.2212 18.4309 55.4901 17.4226C55.6246 16.9521 55.6246 16.4478 55.5909 15.9773C55.4901 15.1708 55.1877 14.4313 54.5826 13.8936C53.7088 13.0533 52.6669 12.7508 51.4905 12.9861C50.7176 13.1542 50.0454 13.5911 49.5413 14.1961C49.0371 14.8346 48.8019 15.6076 48.8019 16.4143Z" fill="#9E9E9E"/>
<path d="M81.4705 8.81848C82.0083 8.81848 82.5125 8.81848 83.0502 8.81848C83.151 8.81848 83.2183 8.81848 83.3191 8.81848C83.6215 8.8521 83.8569 8.98653 84.025 9.25541C84.0921 9.38984 84.1593 9.55789 84.1929 9.69234C84.6971 11.4064 85.2012 13.0869 85.6717 14.801C86.0414 16.0781 86.4112 17.3553 86.7809 18.6325C86.7809 18.6661 86.8144 18.7334 86.8144 18.7669C86.8817 18.9685 86.9154 18.9685 87.117 19.0022C87.3859 19.0022 87.4195 18.9685 87.4867 18.7334C87.7219 17.8594 87.9573 16.9856 88.1925 16.1118C88.7638 14.028 89.3352 11.9106 89.9065 9.82677C89.9402 9.65873 90.0075 9.49068 90.1083 9.35624C90.3099 9.05376 90.5788 8.88571 90.9148 8.8521C90.9821 8.8521 91.0156 8.8521 91.0829 8.8521C92.1583 8.8521 93.2004 8.8521 94.2758 8.8521C94.4102 8.8521 94.5447 8.8521 94.6791 8.88571C95.0152 8.98653 95.2169 9.22181 95.2506 9.55791C95.2841 9.75956 95.2169 9.96121 95.1833 10.1629C94.9817 10.7678 94.8136 11.3728 94.612 11.9778C93.9061 14.196 93.2339 16.4478 92.5281 18.6661C92.1585 19.8425 91.7888 21.0523 91.4191 22.2287C90.9821 23.573 90.5788 24.9511 90.1418 26.2954C89.9402 26.9677 89.6713 27.6399 89.2681 28.2448C88.6967 29.1523 87.9908 29.8917 87.0498 30.3958C86.3776 30.7655 85.6382 30.9671 84.8652 31.068C84.4618 31.1017 84.0585 31.1352 83.6215 31.1352C82.5125 31.068 81.437 30.8663 80.4623 30.3285C80.0589 30.0933 79.6557 29.858 79.3195 29.522C78.9499 29.1858 78.9162 28.7153 79.1179 28.312C79.1851 28.2112 79.2524 28.0767 79.3195 27.9759C79.6221 27.5391 79.891 27.1356 80.1934 26.6988C80.2606 26.6316 80.2943 26.5643 80.3615 26.4635C80.6975 26.0267 81.0673 25.8921 81.605 26.0602C81.7731 26.0938 81.9075 26.1946 82.042 26.2618C82.2099 26.3627 82.378 26.4972 82.5797 26.598C82.9158 26.7659 83.2855 26.9004 83.6552 26.9004C84.2938 26.9004 84.7979 26.6316 85.1341 26.1275C85.2012 25.9929 85.2685 25.8586 85.3357 25.7241C85.5037 25.2872 85.6717 24.8167 85.8063 24.3797C85.8398 24.3125 85.8398 24.2789 85.8398 24.2116C85.8398 24.1444 85.8063 24.1108 85.7726 24.0773C85.6717 24.0773 85.6046 24.0773 85.5037 24.0773C85.0668 24.0773 84.6634 24.0773 84.2266 24.0773C83.6215 24.0773 83.3191 23.8419 83.1174 23.3041C82.8486 22.4976 82.5797 21.7246 82.3108 20.9179C81.941 19.7752 81.5378 18.6325 81.1681 17.4897C80.3951 15.137 79.6221 12.7844 78.8154 10.3981C78.7819 10.2637 78.7482 10.1293 78.681 9.96121C78.6473 9.89399 78.6473 9.82677 78.6473 9.75956C78.6138 9.25541 78.8827 8.91931 79.3868 8.8521C79.4876 8.81848 79.6221 8.8521 79.7229 8.8521C80.3615 8.81848 80.8992 8.81848 81.4705 8.81848Z" fill="#9E9E9E"/>
<path d="M133.802 9.82689C133.869 9.79329 133.869 9.72607 133.869 9.69246C134.003 9.05388 134.272 8.81861 134.945 8.81861C135.751 8.81861 136.558 8.81861 137.398 8.81861C137.532 8.81861 137.633 8.81861 137.768 8.81861C138.272 8.81861 138.574 9.1211 138.675 9.59163C138.709 9.69246 138.709 9.82691 138.709 9.92772C138.709 14.2634 138.709 18.5991 138.709 22.9346C138.709 23.069 138.709 23.2035 138.675 23.3379C138.574 23.7076 138.272 23.9765 137.902 24.0102C137.869 24.0102 137.801 24.0102 137.768 24.0102C136.793 24.0102 135.852 24.0102 134.877 24.0102C134.306 24.0102 134.037 23.7749 133.903 23.2371C133.903 23.2035 133.903 23.1363 133.869 23.1027C133.835 23.0355 133.802 23.0355 133.768 23.069C133.667 23.1363 133.6 23.2035 133.533 23.2708C132.827 23.8757 131.987 24.2119 131.079 24.3798C130.676 24.4471 130.273 24.4808 129.836 24.4808C129.096 24.4808 128.357 24.3798 127.651 24.1446C126.408 23.7413 125.332 23.1027 124.458 22.1617C123.887 21.5566 123.416 20.8509 123.047 20.1115C122.61 19.2712 122.374 18.3637 122.307 17.4227C122.206 16.1454 122.274 14.8684 122.677 13.6584C123.013 12.6501 123.551 11.7426 124.257 10.936C125.5 9.55803 127.013 8.7514 128.861 8.48252C129.735 8.34808 130.609 8.38168 131.449 8.58335C132.323 8.785 133.096 9.15471 133.735 9.79329C133.701 9.79329 133.735 9.82689 133.802 9.82689ZM133.835 16.3808C133.835 16.2127 133.835 16.0111 133.802 15.843C133.533 13.9609 131.718 12.5493 129.769 12.9862C129.029 13.1543 128.391 13.524 127.886 14.1289C127.046 15.1708 126.878 16.3135 127.248 17.5907C127.685 19.1704 129.298 20.2123 130.878 19.9769C131.617 19.8761 132.222 19.5737 132.76 19.0696C133.499 18.3637 133.835 17.4562 133.835 16.3808Z" fill="#9E9E9E"/>
<path d="M73.0342 23.0019C72.9669 23.0019 72.9333 23.0355 72.8996 23.069C72.1267 23.7749 71.2192 24.2119 70.1773 24.3798C68.0935 24.716 66.2114 24.2454 64.5309 23.0019C63.6907 22.3969 63.0521 21.6239 62.5143 20.7164C61.9766 19.809 61.6405 18.8343 61.4724 17.7924C61.2708 16.3808 61.338 14.9692 61.8085 13.6248C62.4135 11.8771 63.489 10.4655 65.0687 9.52444C65.9761 8.95308 66.9508 8.61698 68.0263 8.48255C69.001 8.38172 69.9421 8.38171 70.8831 8.6842C71.5889 8.88586 72.2275 9.25556 72.7988 9.72609C72.8661 9.75971 72.8996 9.82692 72.9669 9.86054C73.0005 9.89414 73.0342 9.86054 73.0342 9.82692C73.0342 9.75971 73.0342 9.69249 73.0677 9.62527C73.135 9.18834 73.471 8.88586 73.908 8.85225C74.1096 8.85225 74.3112 8.85225 74.5129 8.85225C75.2523 8.85225 75.9917 8.85225 76.7311 8.85225C76.832 8.85225 76.8992 8.85225 77 8.85225C77.437 8.88586 77.773 9.22194 77.8067 9.65887C77.8067 9.75971 77.8067 9.82692 77.8067 9.92775C77.8067 14.297 77.8067 18.6662 77.8067 23.0019C77.8067 23.1027 77.8067 23.1699 77.8067 23.2708C77.773 23.7076 77.4706 24.0438 77 24.0438C76.6976 24.0438 76.4287 24.0438 76.1262 24.0438C75.4541 24.0438 74.7818 24.0438 74.1096 24.0438C74.0088 24.0438 73.9415 24.0438 73.8407 24.0438C73.4039 24.0101 73.1013 23.7076 73.0342 23.2708C73.0677 23.1699 73.1013 23.069 73.0342 23.0019ZM69.6732 12.8854C69.4716 12.8854 69.2362 12.919 69.0346 12.9526C67.8919 13.2215 67.0852 13.8601 66.6147 14.9356C66.3122 15.5741 66.245 16.28 66.3458 16.9857C66.4466 17.7251 66.7492 18.3974 67.2868 18.9351C68.0935 19.7418 69.0346 20.1115 70.1773 19.9434C71.0175 19.8426 71.7234 19.4393 72.261 18.8007C73.2021 17.6243 73.3366 16.3135 72.7988 14.9692C72.261 13.6248 70.9167 12.8854 69.6732 12.8854Z" fill="#9E9E9E"/>
<path d="M102.343 8.38159C103.015 8.38159 103.822 8.44882 104.595 8.61686C105.435 8.78491 106.242 9.121 106.981 9.52432C107.351 9.72598 107.721 9.92763 108.057 10.1965C108.124 10.2301 108.191 10.2973 108.225 10.3646C108.662 10.8015 108.695 11.3392 108.325 11.8098C108.191 11.9778 108.057 12.1122 107.922 12.2803C107.653 12.5828 107.384 12.8853 107.116 13.1878C106.78 13.5911 106.343 13.6919 105.838 13.5575C105.637 13.4903 105.469 13.423 105.301 13.3222C104.797 13.0197 104.259 12.7508 103.721 12.5156C103.217 12.3139 102.679 12.2131 102.108 12.2131C101.738 12.2131 101.368 12.2467 100.999 12.4147C100.831 12.482 100.663 12.5828 100.562 12.7172C100.36 12.9525 100.326 13.255 100.528 13.4903C100.663 13.6583 100.864 13.7927 101.099 13.86C101.368 13.9608 101.637 14.028 101.94 14.0952C102.847 14.2633 103.788 14.4313 104.696 14.633C105.603 14.8346 106.477 15.1372 107.25 15.7085C107.922 16.179 108.46 16.784 108.762 17.5906C109.031 18.2964 109.099 19.0022 108.998 19.7417C108.931 20.2794 108.762 20.8171 108.527 21.3213C108.191 21.9598 107.754 22.4976 107.216 22.9346C106.275 23.6403 105.233 24.0772 104.091 24.3126C103.486 24.447 102.847 24.4805 102.209 24.4805C100.763 24.4805 99.3518 24.2789 98.0411 23.674C97.5368 23.4386 97.0327 23.2034 96.5958 22.901C96.2598 22.6992 95.9572 22.4303 95.6883 22.1279C95.5875 22.027 95.4866 21.8927 95.4195 21.7582C95.1506 21.2876 95.1842 20.7835 95.5203 20.3803C95.6212 20.2457 95.7555 20.1449 95.8563 20.0441C96.2598 19.7417 96.663 19.4392 97.0663 19.1366C97.2008 19.0358 97.3687 18.935 97.5368 18.8677C97.7722 18.7669 97.9738 18.7669 98.209 18.8342C98.5116 18.935 98.7468 19.103 98.9821 19.3047C99.3854 19.6408 99.8224 19.9097 100.293 20.1785C101.099 20.6155 101.973 20.7163 102.881 20.6155C103.284 20.5819 103.62 20.4474 103.923 20.1114C104.057 19.9768 104.124 19.8088 104.124 19.6071C104.124 19.3719 104.024 19.1703 103.822 19.0358C103.62 18.935 103.419 18.8342 103.217 18.7669C102.746 18.6325 102.276 18.5317 101.805 18.4309C101.066 18.2628 100.293 18.1284 99.5535 17.9604C98.7803 17.7923 98.0411 17.4898 97.4025 17.0528C96.2261 16.2462 95.6547 15.1372 95.5875 13.7255C95.5539 13.2214 95.5874 12.7508 95.722 12.2467C95.89 11.6417 96.1925 11.0704 96.5958 10.5998C97.1671 9.89403 97.9402 9.38988 98.7805 9.02017C99.4527 8.71769 100.192 8.54964 100.931 8.44882C101.335 8.38159 101.772 8.38159 102.343 8.38159Z" fill="#9E9E9E"/>
<path d="M148.152 8.38166C149.227 8.34806 150.201 8.51611 151.143 8.85221C152.151 9.1883 153.024 9.75967 153.798 10.4655C154.201 10.8352 154.537 11.2049 154.84 11.6418C154.874 11.709 154.94 11.7762 154.974 11.8435C155.344 12.4148 155.109 12.9526 154.773 13.2887C154.739 13.3223 154.671 13.3895 154.605 13.4231C154.033 13.86 153.462 14.297 152.89 14.7339C152.319 15.1708 151.916 15.1036 151.446 14.7003C151.344 14.633 151.277 14.5322 151.211 14.465C150.908 14.1289 150.572 13.7928 150.201 13.5239C149.697 13.1206 149.092 12.9526 148.488 12.919C147.446 12.8517 146.538 13.2214 145.799 13.9609C145.362 14.3978 145.093 14.9355 144.959 15.5406C144.791 16.2463 144.824 16.9857 145.059 17.6579C145.496 18.9015 146.37 19.6745 147.681 19.9097C148.219 20.0105 148.757 19.9434 149.295 19.8089C149.799 19.6745 150.201 19.3721 150.572 19.0359C150.807 18.8006 151.042 18.5654 151.277 18.33C151.446 18.1621 151.613 18.0276 151.815 17.9268C152.084 17.7924 152.319 17.7924 152.588 17.9268C152.689 17.994 152.823 18.0613 152.924 18.1284C153.496 18.5654 154.067 18.9686 154.639 19.4056C154.806 19.54 154.94 19.7081 155.075 19.8761C155.277 20.2123 155.277 20.5819 155.075 20.918C154.906 21.1869 154.739 21.4221 154.537 21.6574C153.832 22.4977 152.958 23.1363 151.982 23.6404C151.243 24.0101 150.47 24.2117 149.664 24.3463C149.227 24.4134 148.791 24.4134 148.353 24.4471C147.984 24.4806 147.614 24.4134 147.244 24.3798C146.202 24.279 145.194 23.9765 144.286 23.4723C142.539 22.5312 141.261 21.1197 140.556 19.2375C140.287 18.4981 140.152 17.7587 140.085 16.9857C139.984 15.8094 140.152 14.6666 140.556 13.5575C141.261 11.709 142.471 10.2974 144.219 9.35634C145.026 8.91942 145.9 8.61694 146.807 8.44889C147.21 8.41528 147.715 8.38166 148.152 8.38166Z" fill="#9E9E9E"/>
<path d="M112.123 16.4816C112.123 15.4733 112.123 14.465 112.123 13.4567C112.123 12.9526 112.123 12.9526 111.585 12.9526C111.283 12.9526 110.98 12.9526 110.678 12.9526C110.543 12.9526 110.409 12.9526 110.275 12.919C109.871 12.8518 109.569 12.5493 109.535 12.1124C109.535 12.0452 109.535 11.9443 109.535 11.8771C109.535 11.2049 109.535 10.5327 109.535 9.86052C109.535 9.7933 109.535 9.72609 109.535 9.65887C109.569 9.18833 109.905 8.85224 110.375 8.81863C110.745 8.81863 111.115 8.81863 111.518 8.81863C111.652 8.81863 111.787 8.81863 111.888 8.81863C112.022 8.81863 112.056 8.75141 112.089 8.61698C112.089 8.51615 112.089 8.41531 112.089 8.31448C112.089 7.33981 112.089 6.36513 112.089 5.39045C112.089 5.25602 112.089 5.12157 112.089 5.02074C112.157 4.61743 112.426 4.34856 112.829 4.24773C112.93 4.21411 113.064 4.21411 113.165 4.21411C114.072 4.21411 114.98 4.21411 115.887 4.21411C116.022 4.21411 116.156 4.21411 116.291 4.24773C116.627 4.34856 116.828 4.55021 116.929 4.91992C116.963 5.08797 116.963 5.25602 116.963 5.42407C116.963 6.39874 116.963 7.33981 116.963 8.31448C116.963 8.41531 116.963 8.51615 116.963 8.61698C116.963 8.7178 117.03 8.78503 117.131 8.78503C117.232 8.78503 117.333 8.78503 117.433 8.78503C118.509 8.78503 119.551 8.78503 120.626 8.78503C120.727 8.78503 120.828 8.78503 120.929 8.78503C121.399 8.81863 121.769 9.18833 121.769 9.65887C121.769 10.4319 121.769 11.2049 121.769 11.9443C121.769 12.4149 121.467 12.7509 121.03 12.8518C120.862 12.8854 120.66 12.8854 120.492 12.8854C119.484 12.8854 118.475 12.8854 117.467 12.8854C117.366 12.8854 117.265 12.8854 117.164 12.8854C117.03 12.8854 116.996 12.9526 116.963 13.087C116.963 13.1543 116.963 13.2551 116.963 13.3223C116.963 15.0028 116.963 16.6497 116.963 18.3302C116.963 18.4646 116.963 18.5991 116.963 18.6999C117.03 19.3048 117.467 19.7418 118.106 19.7753C118.542 19.8089 118.912 19.6745 119.282 19.4729C119.383 19.4393 119.45 19.3721 119.551 19.3048C119.685 19.2375 119.786 19.1704 119.921 19.1367C120.29 19.0359 120.66 19.1367 120.895 19.4729C120.996 19.6073 121.097 19.7753 121.198 19.9434C121.433 20.3467 121.668 20.7164 121.937 21.1197C121.971 21.1869 122.038 21.2877 122.071 21.355C122.34 21.8255 122.273 22.2288 121.903 22.6658C121.635 22.9682 121.298 23.2371 120.929 23.4388C120.189 23.8757 119.383 24.1109 118.542 24.2454C118.005 24.3127 117.467 24.3463 116.929 24.3127C115.854 24.2454 114.845 23.9766 113.938 23.3044C112.997 22.6322 112.426 21.6912 112.19 20.5483C112.089 20.1115 112.056 19.6745 112.056 19.2375C112.123 18.3637 112.123 17.4227 112.123 16.4816Z" fill="#9E9E9E"/>
</g>
<defs>
<clipPath id="clip0_414_432">
<rect width="171.478" height="34" fill="white"/>
</clipPath>
</defs>
</svg>
